<?xml version="1.0" encoding="utf-8"?>
<!-- Generator: Adobe Illustrator 20.0.0, SVG Export Plug-In . SVG Version: 6.00 Build 0)  -->
<svg version="1.1" id="Layer_1" xmlns="http://www.w3.org/2000/svg" xmlns:xlink="http://www.w3.org/1999/xlink" x="0px" y="0px"
	 viewBox="0 0 800 600" style="enable-background:new 0 0 800 600;" xml:space="preserve">
<g>
	<polygon points="465.8,274 477.6,302 631,302 631,274 	"/>
	<polygon points="401,274 399,274 349.1,274 337.2,302 399,302 401,302 462.8,302 450.9,274 	"/>
	<polygon points="495.1,344 617,344 617,315 483.3,315 	"/>
	<polygon points="468.4,315 401,315 399,315 331.6,315 319.8,344 399,344 401,344 480.2,344 	"/>
	<polygon points="481.5,385 605,385 605,356 493.4,356 	"/>
	<polygon points="478.5,356 401,356 399,356 321.5,356 333.4,385 399,385 401,385 466.6,385 	"/>
	<polygon points="464,427 584,427 584,398 475.9,398 	"/>
	<circle cx="415.3" cy="195.3" r="9.4"/>
	<path d="M537,208v-47H412.2c-0.3,3-0.5,6-0.5,9h5.1l18,35.6l-0.9,2.4H537z"/>
	<polygon points="425.5,474 529.1,474 538.8,447 440.4,447 	"/>
	<polygon points="400,518.6 381.1,485 275.1,485 289,523 399,523 401,523 511,523 524.9,485 418.9,485 	"/>
	<polygon points="334.2,274 169,274 169,302 322.4,302 	"/>
	<polygon points="316.7,315 183,315 183,344 304.9,344 	"/>
	<polygon points="306.6,356 195,356 195,385 318.5,385 	"/>
	<polygon points="324.1,398 216,398 216,427 336,427 	"/>
	<polygon points="399,398 339,398 350.8,427 399,427 401,427 449.2,427 461,398 401,398 	"/>
	<circle cx="384.7" cy="195.3" r="9.4"/>
	<path d="M366.2,128.1c-1,0-1.7-0.9-1.7-1.8c0-1,0.8-1.7,1.7-1.7c11.1,0,20.3,11.4,23.9,29.4h8.9h2h8.9c3.6-18,12.8-29.4,23.9-29.4
		c1,0,1.7,0.7,1.7,1.7c0,1-0.8,1.8-1.7,1.8c-9.1,0-17,10.9-20.4,25.9H501v-45H401h-2H299v45h87.6C383.2,139,375.3,128.1,366.2,128.1
		z"/>
	<polygon points="359.1,249 399,249 401,249 440.9,249 446.6,263 588,263 588,218 428.7,218 416.8,240 401,240 399,240 383.2,240 
		371.3,218 212,218 212,263 353.4,263 	"/>
	<path d="M401,170h7.3c0-3,0.2-6,0.5-9H401h-2h-7.7c0.3,3,0.5,6,0.5,9h7.3H401z"/>
	<path d="M365.2,205.6l18-35.6h5.1c0-3-0.2-6-0.5-9H263v47h103.1L365.2,205.6z"/>
	<polygon points="359.6,447 261.2,447 270.9,474 374.5,474 	"/>
	<polygon points="401,104 453,104 453,77 401,77 399,77 347,77 347,104 399,104 	"/>
</g>
</svg>
