<?xml version="1.0" encoding="UTF-8" standalone="no"?>
<svg width="36px" height="35px" viewBox="0 0 36 35" version="1.1" xmlns="http://www.w3.org/2000/svg" xmlns:xlink="http://www.w3.org/1999/xlink">
    <!-- Generator: Sketch 3.7.2 (28276) - http://www.bohemiancoding.com/sketch -->
    <title>Fill 3</title>
    <desc>Created with Sketch.</desc>
    <defs></defs>
    <g id="Mobile" stroke="none" stroke-width="1" fill="none" fill-rule="evenodd">
        <g id="iPhone-SE-Copy-37" transform="translate(-71.000000, -277.000000)" fill="#151513">
            <path d="M88.9412239,277 C79.0343374,277 71,285.033236 71,294.943427 C71,302.870919 76.1406982,309.595573 83.2707045,311.968203 C84.1684266,312.133428 84.4955719,311.579374 84.4955719,311.103526 C84.4955719,310.678347 84.4801509,309.54931 84.4713389,308.052372 C79.4804447,309.136248 78.4274111,305.646698 78.4274111,305.646698 C77.6112,303.573676 76.4347985,303.021824 76.4347985,303.021824 C74.8056808,301.90931 76.5581665,301.93134 76.5581665,301.93134 C78.3591182,302.058012 79.3064078,303.780757 79.3064078,303.780757 C80.9068865,306.52239 83.5064254,305.730412 84.5286169,305.271086 C84.6916388,304.112309 85.1553701,303.321432 85.6675674,302.873122 C81.6834437,302.420406 77.4944411,300.880509 77.4944411,294.004949 C77.4944411,292.046483 78.1938933,290.443801 79.3416557,289.190295 C79.1566038,288.736477 78.5408656,286.911293 79.5178957,284.441731 C79.5178957,284.441731 81.0236455,283.959274 84.4515119,286.281235 C85.8823598,285.882492 87.4178501,285.684222 88.9434269,285.676512 C90.4679022,285.684222 92.002291,285.882492 93.4353419,286.281235 C96.8610053,283.959274 98.3645522,284.441731 98.3645522,284.441731 C99.3437852,286.911293 98.728047,288.736477 98.5440966,289.190295 C99.6940621,290.443801 100.388007,292.046483 100.388007,294.004949 C100.388007,300.898133 96.1923951,302.414898 92.1961549,302.858802 C92.8394306,303.412857 93.4133119,304.507747 93.4133119,306.182026 C93.4133119,308.579991 93.3912819,310.515325 93.3912819,311.103526 C93.3912819,311.58378 93.7151228,312.14224 94.6249613,311.967102 C101.74946,309.588964 106.885752,302.868716 106.885752,294.943427 C106.885752,285.033236 98.8514149,277 88.9412239,277" id="Fill-3"></path>
        </g>
    </g>
</svg>