<?xml version="1.0" encoding="utf-8"?>
<!-- Generator: Adobe Illustrator 20.0.0, SVG Export Plug-In . SVG Version: 6.00 Build 0)  -->
<svg version="1.1" id="Layer_1" xmlns="http://www.w3.org/2000/svg" xmlns:xlink="http://www.w3.org/1999/xlink" x="0px" y="0px"
	 viewBox="0 0 36 36" style="enable-background:new 0 0 36 36;" xml:space="preserve">
<g>
	<path d="M18.6,4.1c4.6,0,5.2,0,7,0.1c1.7,0.1,2.6,0.4,3.2,0.6c0.8,0.3,1.4,0.7,2,1.3c0.6,0.6,1,1.2,1.3,2c0.2,0.6,0.5,1.5,0.6,3.2
		c0.1,1.8,0.1,2.4,0.1,7s0,5.2-0.1,7c-0.1,1.7-0.4,2.6-0.6,3.2c-0.3,0.8-0.7,1.4-1.3,2c-0.6,0.6-1.2,1-2,1.3
		c-0.6,0.2-1.5,0.5-3.2,0.6c-1.8,0.1-2.4,0.1-7,0.1s-5.2,0-7-0.1c-1.7-0.1-2.6-0.4-3.2-0.6c-0.8-0.3-1.4-0.7-2-1.3
		c-0.6-0.6-1-1.2-1.3-2C4.8,28,4.5,27,4.5,25.3c-0.1-1.8-0.1-2.4-0.1-7s0-5.2,0.1-7C4.5,9.6,4.8,8.7,5,8.1c0.3-0.8,0.7-1.4,1.3-2
		c0.6-0.6,1.2-1,2-1.3C9,4.6,9.9,4.3,11.6,4.2C13.4,4.1,13.9,4.1,18.6,4.1 M18.6,1c-4.7,0-5.3,0-7.1,0.1C9.6,1.2,8.3,1.5,7.2,1.9
		c-1.1,0.4-2.1,1-3.1,2c-1,1-1.6,1.9-2,3.1c-0.4,1.1-0.7,2.4-0.8,4.2c-0.1,1.8-0.1,2.4-0.1,7.1c0,4.7,0,5.3,0.1,7.1
		c0.1,1.8,0.4,3.1,0.8,4.2c0.4,1.1,1,2.1,2,3.1c1,1,1.9,1.6,3.1,2c1.1,0.4,2.4,0.7,4.2,0.8c1.8,0.1,2.4,0.1,7.1,0.1s5.3,0,7.1-0.1
		c1.8-0.1,3.1-0.4,4.2-0.8c1.1-0.4,2.1-1,3.1-2c1-1,1.6-1.9,2-3.1c0.4-1.1,0.7-2.4,0.8-4.2c0.1-1.8,0.1-2.4,0.1-7.1s0-5.3-0.1-7.1
		C35.7,9.3,35.4,8.1,35,7c-0.4-1.1-1-2.1-2-3.1c-1-1-1.9-1.6-3.1-2c-1.1-0.4-2.4-0.7-4.2-0.8C23.9,1,23.3,1,18.6,1L18.6,1z"/>
	<path d="M18.6,9.4c-4.9,0-8.9,4-8.9,8.9s4,8.9,8.9,8.9s8.9-4,8.9-8.9S23.5,9.4,18.6,9.4z M18.6,24.1c-3.2,0-5.8-2.6-5.8-5.8
		s2.6-5.8,5.8-5.8s5.8,2.6,5.8,5.8S21.8,24.1,18.6,24.1z"/>
	<circle cx="27.8" cy="9.1" r="2.1"/>
</g>
</svg>
