<?xml version="1.0" encoding="utf-8"?>
<!-- Generator: Adobe Illustrator 26.5.1, SVG Export Plug-In . SVG Version: 6.00 Build 0)  -->
<svg version="1.1" id="Layer_1" xmlns="http://www.w3.org/2000/svg" xmlns:xlink="http://www.w3.org/1999/xlink" x="0px" y="0px"
	 viewBox="0 0 48 48" style="enable-background:new 0 0 48 48;" xml:space="preserve">
<path d="M33.2,1.6c12.3,0,13.2,1,13.2,13.2v18.5c0,12.3-1,13.2-13.2,13.2H14.8c-12.3,0-13.2-1-13.2-13.2V14.8
	c0-12.3,1-13.2,13.2-13.2H33.2z M17.6,32.3c4.6,0,8.3-3.7,8.3-8.3s-3.7-8.3-8.3-8.3S9.3,19.4,9.3,24S13,32.3,17.6,32.3z M30.8,31.9
	c2.3,0,4.1-3.5,4.1-7.9s-1.8-7.9-4.1-7.9s-4.1,3.5-4.1,7.9C26.7,28.4,28.6,31.9,30.8,31.9z M37.2,31.1c0.8,0,1.4-3.2,1.4-7.1
	s-0.6-7.1-1.4-7.1c-0.8,0-1.4,3.2-1.4,7.1S36.4,31.1,37.2,31.1z"/>
</svg>
