<svg xmlns="http://www.w3.org/2000/svg" xmlns:xlink="http://www.w3.org/1999/xlink" width="975" height="975" viewBox="0 0 975 975">
  <defs>
    <clipPath id="f40312e4-7447-4c6e-8c0d-7217d321edab">
      <circle cx="488" cy="488" r="487.5" style="fill: #61406b"/>
    </clipPath>
    <clipPath id="73d4d00d-83dc-4d03-bb6f-752954961442">
      <circle cx="301.5" cy="565.5" r="129.5" style="fill: #fff"/>
    </clipPath>
    <clipPath id="52be8fa3-b905-48a0-9b10-c822f4cdad48">
      <circle cx="662.5" cy="565.5" r="129.5" style="fill: #fff"/>
    </clipPath>
  </defs>
  <title>cat</title>
  <g id="6e281faa-819b-480d-892d-95a81dc6176a" data-name="cat">
    <g>
      <circle cx="488" cy="488" r="487.5" style="fill: #61406b"/>
      <g style="clip-path: url(#f40312e4-7447-4c6e-8c0d-7217d321edab)">
        <g>
          <path d="M823.79,538.07l28.27-331.27a8.3,8.3,0,0,0-.42-6.07c-1.87-4.11-7.7-5.8-11.58-3.53l-229.23,134a360.11,360.11,0,0,0-252.93-2.5l-225-131.52c-3.88-2.27-9.71-.58-11.58,3.53a8.3,8.3,0,0,0-.42,6.07l26.6,311.71C119.13,574.67,110.31,639.23,103,707c-24,223,36.92,400,378,400,333,0,424-168,378-400C847.33,647.78,846.42,589.39,823.79,538.07Z" style="fill: #d069de"/>
          <g id="d2f424eb-acc5-4115-827c-3275e2ddb3d3" data-name="eyes group">
            <circle cx="301.5" cy="565.5" r="129.5" style="fill: #fff"/>
            <g style="clip-path: url(#73d4d00d-83dc-4d03-bb6f-752954961442)">
              <circle cx="360" cy="528" r="64" style="fill: #fff"/>
            </g>
          </g>
          <g id="37cd0e17-85ff-46d3-b70e-4a1f6ab2e6d5" data-name="eyes group">
            <circle cx="662.5" cy="565.5" r="129.5" style="fill: #fff"/>
            <g style="clip-path: url(#52be8fa3-b905-48a0-9b10-c822f4cdad48)">
              <circle cx="724" cy="521" r="68" style="fill: #fff"/>
            </g>
          </g>
          <path d="M437,687c39,9,53,2,71,0s30-3,32,4-5,56-36,69-44,0-44,0-36-20-39-39-4-31,0-35S437,687,437,687Z" style="fill: #42210b;stroke: #42210b;stroke-miterlimit: 10"/>
          <path d="M467.51,765.66a130.7,130.7,0,0,1-10.29,51.54,178.51,178.51,0,0,1-12.15,23.6c-4.53,7.48-9.32,16.38-16.52,21.61-13.41,9.74-35.44,7.67-50.47,3.55a83.59,83.59,0,0,1-42.16-27,85.53,85.53,0,0,1-19.45-52.53c-.09-3.86-6.09-3.87-6,0,.82,37,24.26,70.46,59.16,83.16,16.58,6,37.31,8.21,54.18,2,8.76-3.23,14.5-9.64,19.65-17.18a208.06,208.06,0,0,0,14.79-25.11c9.82-19.89,15.43-41.37,15.25-63.61,0-3.86-6-3.87-6,0Z" style="fill: #42210b"/>
          <path d="M463.34,807.09c-.21,33.74,27.61,60.11,58.86,67.65,17.91,4.32,36.76,3.45,54.68-.36,16.93-3.6,34.45-9.87,46.82-22.48C637.58,837.76,643,818,648,799.41c1-3.74-4.8-5.33-5.79-1.6-3.95,15-8,30.46-17.15,43.23-9.88,13.83-25.5,21.22-41.5,25.56-31.37,8.52-68.93,7.8-94-15.55-12.25-11.42-20.31-27-20.21-44,0-3.86-6-3.87-6,0Z" style="fill: #42210b"/>
          <path d="M355.88,729.22c6.43,0,6.45-10,0-10s-6.45,10,0,10Z" style="fill: #42210b"/>
          <path d="M360,771.67c6.43,0,6.45-10,0-10s-6.45,10,0,10Z" style="fill: #42210b"/>
          <path d="M297.91,747.86c6.43,0,6.45-10,0-10s-6.45,10,0,10Z" style="fill: #42210b"/>
          <path d="M392.11,699.2c6.43,0,6.45-10,0-10s-6.45,10,0,10Z" style="fill: #42210b"/>
          <path d="M589.84,797.55c6.43,0,6.45-10,0-10s-6.45,10,0,10Z" style="fill: #42210b"/>
          <path d="M594,744.75c6.43,0,6.45-10,0-10s-6.45,10,0,10Z" style="fill: #42210b"/>
          <path d="M643.67,745.79c6.43,0,6.45-10,0-10s-6.45,10,0,10Z" style="fill: #42210b"/>
          <path d="M634.35,782c6.43,0,6.45-10,0-10s-6.45,10,0,10Z" style="fill: #42210b"/>
          <path d="M573.27,702.31c6.43,0,6.45-10,0-10s-6.45,10,0,10Z" style="fill: #42210b"/>
          <path d="M267.73,724.81A981.6,981.6,0,0,0,69.11,676.24q-28.86-3.92-57.91-6.18c-6.42-.5-6.39,9.5,0,10a974.18,974.18,0,0,1,198.88,36.47q27.76,8.15,55,17.93c6.07,2.17,8.68-7.49,2.66-9.64Z" style="fill: #42210b"/>
          <path d="M276.16,766.29q-126.31-3.23-252.62,2.63c-6.41.3-6.44,10.3,0,10q126.22-5.85,252.62-2.63c6.44.16,6.43-9.84,0-10Z" style="fill: #42210b"/>
          <path d="M278.45,817.53c-61,13.2-124.07,27.12-176.19,63.31a219.47,219.47,0,0,0-37,32.17c-4.33,4.74,2.72,11.84,7.07,7.07,40.55-44.42,98.16-66.26,155.17-80.65,17.79-4.49,35.72-8.37,53.65-12.25,6.29-1.36,3.63-11-2.66-9.64Z" style="fill: #42210b"/>
          <path d="M683.32,735.49a735.34,735.34,0,0,1,192-59.06q28.47-4.63,57.23-6.95c6.37-.52,6.42-10.53,0-10a744.83,744.83,0,0,0-200.44,44.72q-27.37,10.27-53.88,22.65c-5.83,2.71-.76,11.34,5,8.63Z" style="fill: #42210b"/>
          <path d="M693.34,762.76c62.31-1.3,125.86-2.58,186.75,12.78A303.48,303.48,0,0,1,930,792.69c5.82,2.61,10.92-6,5-8.63-58.66-26.29-123.31-31.75-186.86-32-18.29-.06-36.58.29-54.87.67-6.43.13-6.45,10.13,0,10Z" style="fill: #42210b"/>
          <path d="M700.21,829.87A874.61,874.61,0,0,1,867.09,941.76c4.87,4.15,12-2.89,7.07-7.07a885.68,885.68,0,0,0-168.9-113.45c-5.71-2.94-10.78,5.68-5,8.63Z" style="fill: #42210b"/>
        </g>
      </g>
    </g>
  </g>
</svg>
