<svg xmlns="http://www.w3.org/2000/svg" width="314" height="339" viewBox="0 0 314 339">
  <title>yarn</title>
  <g id="83dbb858-b135-4451-9589-7902644b5434" data-name="Layer 4">
    <g>
      <ellipse cx="157.5" cy="172.56" rx="157" ry="166" style="fill: gray"/>
      <path d="M60.33,185.29c0,24.35,9.84,48.41,27.55,65.24a90.18,90.18,0,0,0,66.54,24.23c5.76-.32,5.8-9.32,0-9-22,1.21-44.11-6.36-60.18-21.6a81.19,81.19,0,0,1-24.91-58.88c0-5.79-9-5.8-9,0Z" style="fill: #ccc"/>
      <path d="M74.77,168.27c-5.31,18.36,5.66,38.73,17.81,52a80.14,80.14,0,0,0,46.13,25c5.67.89,8.11-7.78,2.39-8.68A72.08,72.08,0,0,1,101,216C90,205,78.82,186.67,83.45,170.66c1.61-5.57-7.07-8-8.68-2.39Z" style="fill: #ccc"/>
      <path d="M86.26,153.49c3.23,33.78,28.53,61.6,62.35,66.71,5.67.86,8.11-7.81,2.39-8.68-29.6-4.48-52.87-28-55.74-58-.55-5.72-9.55-5.77-9,0Z" style="fill: #ccc"/>
      <path d="M128.29,305.74c8.79,5.42,19.18-1.43,26.57-6.36a121.52,121.52,0,0,0,23.72-21c15.26-17.36,26.11-37.89,36.76-58.25,2.68-5.13-5.08-9.68-7.77-4.54-9.25,17.69-18.53,35.7-31.08,51.34a129.71,129.71,0,0,1-18.48,19,94.16,94.16,0,0,1-11.88,8.34c-3.52,2.09-9.23,6.23-13.3,3.72-4.94-3-9.47,4.73-4.54,7.77Z" style="fill: #ccc"/>
      <path d="M166.11,312.75c9.61-1.47,15.48-9.38,21.87-15.87,7.74-7.86,17.29-13.67,24.54-22,13.9-16.06,20.43-36.69,26.5-56.65,1.69-5.55-7-7.93-8.68-2.39-5.58,18.36-11.37,37.88-24.18,52.68-6.51,7.52-14.85,12.93-22.09,19.67-6.2,5.76-11.38,14.57-20.35,15.94-5.71.87-3.28,9.55,2.39,8.68Z" style="fill: #ccc"/>
      <path d="M207.6,315.89c12.4-9.76,23-19.71,28.72-34.75,6.29-16.41,10.36-33.91,15.32-50.77,1.64-5.57-7-7.95-8.68-2.39-4.64,15.77-8.77,31.82-14.1,47.38-5.16,15.08-15.42,24.56-27.63,34.17-4.55,3.58,1.86,9.91,6.36,6.36Z" style="fill: #ccc"/>
      <path d="M49.06,201.32c2.68-25.32,4.83-51.75,23.37-71.09s45-27.7,69.95-35.54C147.88,93,145.53,84.28,140,86c-26.87,8.44-55.35,17.67-75,39-19.46,21.13-22,49-24.91,76.29-.61,5.75,8.39,5.71,9,0Z" style="fill: #ccc"/>
      <path d="M26.77,180.52c1-24.64,2.52-51.87,21.18-70.24,16.47-16.21,40.22-22.39,62-27.84,5.61-1.41,3.24-10.09-2.39-8.68-23.73,6-49.39,13.08-67,31.19C21,125.13,18.85,153.89,17.77,180.52c-.23,5.79,8.77,5.78,9,0Z" style="fill: #ccc"/>
      <path d="M46,86.93c26.58-27.9,66-45.31,104-31.12,5.43,2,7.78-6.67,2.39-8.68-40.89-15.25-84.12,3.4-112.74,33.44-4,4.19,2.36,10.57,6.36,6.36Z" style="fill: #ccc"/>
    </g>
  </g>
</svg>
