<?xml version="1.0" encoding="UTF-8" standalone="no"?><svg xmlns="http://www.w3.org/2000/svg" xmlns:xlink="http://www.w3.org/1999/xlink" clip-rule="evenodd" stroke-miterlimit="4.00" viewBox="0 0 960 540"><desc>SVG generated by Keynote</desc><defs></defs><g transform="matrix(1.00, 0.00, -0.00, -1.00, 0.0, 540.0)"><path d="M 0.0 540.0 L 960.0 540.0 L 960.0 0.0 L 0.0 0.0 Z M 0.0 540.0 " fill="#FFFFFF"></path><text xml:space="preserve" font-family="Roboto-Regular" font-size="44.0" fill="#00BECA" transform="matrix(1.00, 0.00, -0.00, -1.00, 70.0, 444.0)">H</text><text xml:space="preserve" font-family="Roboto-Regular" font-size="44.0" fill="#00BECA" transform="matrix(1.00, 0.00, -0.00, -1.00, 101.4, 444.0)">o</text><text xml:space="preserve" font-family="Roboto-Regular" font-size="44.0" fill="#00BECA" transform="matrix(1.00, 0.00, -0.00, -1.00, 126.5, 444.0)">w</text><text xml:space="preserve" font-family="Roboto-Regular" font-size="44.0" fill="#00BECA" transform="matrix(1.00, 0.00, -0.00, -1.00, 159.6, 444.0)"> </text><text xml:space="preserve" font-family="Roboto-Regular" font-size="44.0" fill="#00BECA" transform="matrix(1.00, 0.00, -0.00, -1.00, 170.4, 444.0)">o</text><text xml:space="preserve" font-family="Roboto-Regular" font-size="44.0" fill="#00BECA" transform="matrix(1.00, 0.00, -0.00, -1.00, 195.5, 444.0)">t</text><text xml:space="preserve" font-family="Roboto-Regular" font-size="44.0" fill="#00BECA" transform="matrix(1.00, 0.00, -0.00, -1.00, 209.9, 444.0)">h</text><text xml:space="preserve" font-family="Roboto-Regular" font-size="44.0" fill="#00BECA" transform="matrix(1.00, 0.00, -0.00, -1.00, 234.1, 444.0)">e</text><text xml:space="preserve" font-family="Roboto-Regular" font-size="44.0" fill="#00BECA" transform="matrix(1.00, 0.00, -0.00, -1.00, 257.4, 444.0)">r</text><text xml:space="preserve" font-family="Roboto-Regular" font-size="44.0" fill="#00BECA" transform="matrix(1.00, 0.00, -0.00, -1.00, 272.3, 444.0)"> </text><text xml:space="preserve" font-family="Roboto-Regular" font-size="44.0" fill="#00BECA" transform="matrix(1.00, 0.00, -0.00, -1.00, 283.2, 444.0)">p</text><text xml:space="preserve" font-family="Roboto-Regular" font-size="44.0" fill="#00BECA" transform="matrix(1.00, 0.00, -0.00, -1.00, 307.9, 444.0)">e</text><text xml:space="preserve" font-family="Roboto-Regular" font-size="44.0" fill="#00BECA" transform="matrix(1.00, 0.00, -0.00, -1.00, 331.2, 444.0)">o</text><text xml:space="preserve" font-family="Roboto-Regular" font-size="44.0" fill="#00BECA" transform="matrix(1.00, 0.00, -0.00, -1.00, 356.3, 444.0)">p</text><text xml:space="preserve" font-family="Roboto-Regular" font-size="44.0" fill="#00BECA" transform="matrix(1.00, 0.00, -0.00, -1.00, 381.0, 444.0)">l</text><text xml:space="preserve" font-family="Roboto-Regular" font-size="44.0" fill="#00BECA" transform="matrix(1.00, 0.00, -0.00, -1.00, 391.6, 444.0)">e</text><text xml:space="preserve" font-family="Roboto-Regular" font-size="44.0" fill="#00BECA" transform="matrix(1.00, 0.00, -0.00, -1.00, 414.9, 444.0)"> </text><text xml:space="preserve" font-family="Roboto-Regular" font-size="44.0" fill="#00BECA" transform="matrix(1.00, 0.00, -0.00, -1.00, 425.8, 444.0)">d</text><text xml:space="preserve" font-family="Roboto-Regular" font-size="44.0" fill="#00BECA" transform="matrix(1.00, 0.00, -0.00, -1.00, 450.6, 444.0)">o</text><text xml:space="preserve" font-family="Roboto-Regular" font-size="44.0" fill="#00BECA" transform="matrix(1.00, 0.00, -0.00, -1.00, 475.7, 444.0)"> </text><text xml:space="preserve" font-family="Roboto-Regular" font-size="44.0" fill="#00BECA" transform="matrix(1.00, 0.00, -0.00, -1.00, 486.6, 444.0)">i</text><text xml:space="preserve" font-family="Roboto-Regular" font-size="44.0" fill="#00BECA" transform="matrix(1.00, 0.00, -0.00, -1.00, 497.3, 444.0)">t</text><text xml:space="preserve" font-family="Roboto-Regular" font-size="44.0" fill="#00BECA" transform="matrix(1.00, 0.00, -0.00, -1.00, 511.6, 444.0)"> </text><text xml:space="preserve" font-family="Roboto-Regular" font-size="44.0" fill="#00BECA" transform="matrix(1.00, 0.00, -0.00, -1.00, 522.5, 444.0)">(</text><text xml:space="preserve" font-family="Roboto-Regular" font-size="44.0" fill="#00BECA" transform="matrix(1.00, 0.00, -0.00, -1.00, 537.5, 444.0)">A</text><text xml:space="preserve" font-family="Roboto-Regular" font-size="44.0" fill="#00BECA" transform="matrix(1.00, 0.00, -0.00, -1.00, 566.3, 444.0)">d</text><text xml:space="preserve" font-family="Roboto-Regular" font-size="44.0" fill="#00BECA" transform="matrix(1.00, 0.00, -0.00, -1.00, 591.1, 444.0)">o</text><text xml:space="preserve" font-family="Roboto-Regular" font-size="44.0" fill="#00BECA" transform="matrix(1.00, 0.00, -0.00, -1.00, 616.2, 444.0)">b</text><text xml:space="preserve" font-family="Roboto-Regular" font-size="44.0" fill="#00BECA" transform="matrix(1.00, 0.00, -0.00, -1.00, 640.9, 444.0)">e</text><text xml:space="preserve" font-family="Roboto-Regular" font-size="44.0" fill="#00BECA" transform="matrix(1.00, 0.00, -0.00, -1.00, 664.2, 444.0)"> </text><text xml:space="preserve" font-family="Roboto-Regular" font-size="44.0" fill="#00BECA" transform="matrix(1.00, 0.00, -0.00, -1.00, 675.0, 444.0)">M</text><text xml:space="preserve" font-family="Roboto-Regular" font-size="44.0" fill="#00BECA" transform="matrix(1.00, 0.00, -0.00, -1.00, 713.5, 444.0)">o</text><text xml:space="preserve" font-family="Roboto-Regular" font-size="44.0" fill="#00BECA" transform="matrix(1.00, 0.00, -0.00, -1.00, 738.6, 444.0)">b</text><text xml:space="preserve" font-family="Roboto-Regular" font-size="44.0" fill="#00BECA" transform="matrix(1.00, 0.00, -0.00, -1.00, 763.2, 444.0)">i</text><text xml:space="preserve" font-family="Roboto-Regular" font-size="44.0" fill="#00BECA" transform="matrix(1.00, 0.00, -0.00, -1.00, 773.9, 444.0)">l</text><text xml:space="preserve" font-family="Roboto-Regular" font-size="44.0" fill="#00BECA" transform="matrix(1.00, 0.00, -0.00, -1.00, 784.6, 444.0)">e</text><text xml:space="preserve" font-family="Roboto-Regular" font-size="44.0" fill="#00BECA" transform="matrix(1.00, 0.00, -0.00, -1.00, 807.9, 444.0)">)</text><image xlink:href="B61F8A39972C0C514F6F07DA8A84C521.png" width="219.00" height="390.00" transform="matrix(1.00, 0.00, -0.00, -1.00, 65.0, 400.0)"></image><image xlink:href="023286C62BC242C7AA848522DB8480A4.png" width="593.00" height="334.00" transform="matrix(1.00, 0.00, -0.00, -1.00, 346.0, 372.0)"></image></g></svg>