<?xml version="1.0" encoding="utf-8"?>
<!-- Generator: Adobe Illustrator 20.0.0, SVG Export Plug-In . SVG Version: 6.00 Build 0)  -->
<svg version="1.1" id="Layer_1" xmlns="http://www.w3.org/2000/svg" xmlns:xlink="http://www.w3.org/1999/xlink" x="0px" y="0px"
	 viewBox="0 0 800 600" style="enable-background:new 0 0 800 600;" xml:space="preserve">
<style type="text/css">
	.st0{fill:#FFFFFF;stroke:#29ABE2;stroke-width:10;stroke-miterlimit:10;}
	.st1{fill:#29ABE2;}
	.st2{fill:#FFFFFF;}
	.st3{fill:#FFFFFF;stroke:#29ABE2;stroke-width:10;stroke-linecap:round;stroke-miterlimit:10;}
</style>
<path class="st0" d="M430.6,440.9h-68.8c-2,0-3.6-1.6-3.6-3.6l-88.7-133.2c0-6.6,5.4-12,12-12h229.5c6.6,0,12,5.4,12,12l-88.7,133.2
	C434.2,439.3,432.6,440.9,430.6,440.9z"/>
<path class="st0" d="M403.8,518.5h-3.6c-27.3,0-49.7-22.4-49.7-49.7V323.7c0-27.3,22.4-49.7,49.7-49.7h3.6
	c27.3,0,49.7,22.4,49.7,49.7v145.1C453.5,496.1,431.1,518.5,403.8,518.5z"/>
<path class="st1" d="M579,363c0,97.7-6-31-182-31s-172,128.7-172,31S372.7,76,402,76S579,265.2,579,363z"/>
<circle class="st0" cx="310.7" cy="214" r="51.7"/>
<circle class="st0" cx="489.2" cy="214" r="51.7"/>
<circle class="st1" cx="303.5" cy="194.5" r="17.5"/>
<circle class="st1" cx="498.5" cy="194.5" r="17.5"/>
<g>
	<circle class="st2" cx="377.3" cy="287.2" r="6.2"/>
	<circle class="st2" cx="426.7" cy="287.2" r="6.2"/>
</g>
<g>
	<line class="st3" x1="402" y1="360" x2="403" y2="473.1"/>
</g>
</svg>
