<?xml version="1.0" encoding="UTF-8" standalone="no"?><svg xmlns="http://www.w3.org/2000/svg" xmlns:xlink="http://www.w3.org/1999/xlink" clip-rule="evenodd" stroke-miterlimit="4.00" viewBox="0 0 960 540"><desc>SVG generated by Keynote</desc><defs></defs><g transform="matrix(1.00, 0.00, -0.00, -1.00, 0.0, 540.0)"><path d="M 0.0 540.0 L 960.0 540.0 L 960.0 0.0 L 0.0 0.0 Z M 0.0 540.0 " fill="#FFFFFF"></path><text xml:space="preserve" font-family="Roboto-Regular" font-size="44.0" fill="#00BECA" transform="matrix(1.00, 0.00, -0.00, -1.00, 70.0, 444.0)">H</text><text xml:space="preserve" font-family="Roboto-Regular" font-size="44.0" fill="#00BECA" transform="matrix(1.00, 0.00, -0.00, -1.00, 101.4, 444.0)">o</text><text xml:space="preserve" font-family="Roboto-Regular" font-size="44.0" fill="#00BECA" transform="matrix(1.00, 0.00, -0.00, -1.00, 126.5, 444.0)">w</text><text xml:space="preserve" font-family="Roboto-Regular" font-size="44.0" fill="#00BECA" transform="matrix(1.00, 0.00, -0.00, -1.00, 159.6, 444.0)"> </text><text xml:space="preserve" font-family="Roboto-Regular" font-size="44.0" fill="#00BECA" transform="matrix(1.00, 0.00, -0.00, -1.00, 170.4, 444.0)">o</text><text xml:space="preserve" font-family="Roboto-Regular" font-size="44.0" fill="#00BECA" transform="matrix(1.00, 0.00, -0.00, -1.00, 195.5, 444.0)">t</text><text xml:space="preserve" font-family="Roboto-Regular" font-size="44.0" fill="#00BECA" transform="matrix(1.00, 0.00, -0.00, -1.00, 209.9, 444.0)">h</text><text xml:space="preserve" font-family="Roboto-Regular" font-size="44.0" fill="#00BECA" transform="matrix(1.00, 0.00, -0.00, -1.00, 234.1, 444.0)">e</text><text xml:space="preserve" font-family="Roboto-Regular" font-size="44.0" fill="#00BECA" transform="matrix(1.00, 0.00, -0.00, -1.00, 257.4, 444.0)">r</text><text xml:space="preserve" font-family="Roboto-Regular" font-size="44.0" fill="#00BECA" transform="matrix(1.00, 0.00, -0.00, -1.00, 272.3, 444.0)"> </text><text xml:space="preserve" font-family="Roboto-Regular" font-size="44.0" fill="#00BECA" transform="matrix(1.00, 0.00, -0.00, -1.00, 283.2, 444.0)">p</text><text xml:space="preserve" font-family="Roboto-Regular" font-size="44.0" fill="#00BECA" transform="matrix(1.00, 0.00, -0.00, -1.00, 307.9, 444.0)">e</text><text xml:space="preserve" font-family="Roboto-Regular" font-size="44.0" fill="#00BECA" transform="matrix(1.00, 0.00, -0.00, -1.00, 331.2, 444.0)">o</text><text xml:space="preserve" font-family="Roboto-Regular" font-size="44.0" fill="#00BECA" transform="matrix(1.00, 0.00, -0.00, -1.00, 356.3, 444.0)">p</text><text xml:space="preserve" font-family="Roboto-Regular" font-size="44.0" fill="#00BECA" transform="matrix(1.00, 0.00, -0.00, -1.00, 381.0, 444.0)">l</text><text xml:space="preserve" font-family="Roboto-Regular" font-size="44.0" fill="#00BECA" transform="matrix(1.00, 0.00, -0.00, -1.00, 391.6, 444.0)">e</text><text xml:space="preserve" font-family="Roboto-Regular" font-size="44.0" fill="#00BECA" transform="matrix(1.00, 0.00, -0.00, -1.00, 414.9, 444.0)"> </text><text xml:space="preserve" font-family="Roboto-Regular" font-size="44.0" fill="#00BECA" transform="matrix(1.00, 0.00, -0.00, -1.00, 425.8, 444.0)">d</text><text xml:space="preserve" font-family="Roboto-Regular" font-size="44.0" fill="#00BECA" transform="matrix(1.00, 0.00, -0.00, -1.00, 450.6, 444.0)">o</text><text xml:space="preserve" font-family="Roboto-Regular" font-size="44.0" fill="#00BECA" transform="matrix(1.00, 0.00, -0.00, -1.00, 475.7, 444.0)"> </text><text xml:space="preserve" font-family="Roboto-Regular" font-size="44.0" fill="#00BECA" transform="matrix(1.00, 0.00, -0.00, -1.00, 486.6, 444.0)">i</text><text xml:space="preserve" font-family="Roboto-Regular" font-size="44.0" fill="#00BECA" transform="matrix(1.00, 0.00, -0.00, -1.00, 497.3, 444.0)">t</text><text xml:space="preserve" font-family="Roboto-Regular" font-size="44.0" fill="#00BECA" transform="matrix(1.00, 0.00, -0.00, -1.00, 511.6, 444.0)"> </text><text xml:space="preserve" font-family="Roboto-Regular" font-size="44.0" fill="#00BECA" transform="matrix(1.00, 0.00, -0.00, -1.00, 522.5, 444.0)">(</text><text xml:space="preserve" font-family="Roboto-Regular" font-size="44.0" fill="#00BECA" transform="matrix(1.00, 0.00, -0.00, -1.00, 537.5, 444.0)">P</text><text xml:space="preserve" font-family="Roboto-Regular" font-size="44.0" fill="#00BECA" transform="matrix(1.00, 0.00, -0.00, -1.00, 565.3, 444.0)">r</text><text xml:space="preserve" font-family="Roboto-Regular" font-size="44.0" fill="#00BECA" transform="matrix(1.00, 0.00, -0.00, -1.00, 579.8, 444.0)">e</text><text xml:space="preserve" font-family="Roboto-Regular" font-size="44.0" fill="#00BECA" transform="matrix(1.00, 0.00, -0.00, -1.00, 602.8, 444.0)">v</text><text xml:space="preserve" font-family="Roboto-Regular" font-size="44.0" fill="#00BECA" transform="matrix(1.00, 0.00, -0.00, -1.00, 624.1, 444.0)">i</text><text xml:space="preserve" font-family="Roboto-Regular" font-size="44.0" fill="#00BECA" transform="matrix(1.00, 0.00, -0.00, -1.00, 634.8, 444.0)">e</text><text xml:space="preserve" font-family="Roboto-Regular" font-size="44.0" fill="#00BECA" transform="matrix(1.00, 0.00, -0.00, -1.00, 658.1, 444.0)">w</text><text xml:space="preserve" font-family="Roboto-Regular" font-size="44.0" fill="#00BECA" transform="matrix(1.00, 0.00, -0.00, -1.00, 691.2, 444.0)">)</text><image xlink:href="56332B32AE3F6A47B9C732A441039043.png" width="423.00" height="369.00" transform="matrix(1.00, 0.00, -0.00, -1.00, 254.0, 399.0)"></image></g></svg>